<?xml version="1.0" encoding="utf-8"?>
<!-- Generator: Adobe Illustrator 16.0.0, SVG Export Plug-In . SVG Version: 6.00 Build 0)  -->
<!DOCTYPE svg PUBLIC "-//W3C//DTD SVG 1.1//EN" "http://www.w3.org/Graphics/SVG/1.1/DTD/svg11.dtd">
<svg version="1.1" id="Capa_1" xmlns="http://www.w3.org/2000/svg" xmlns:xlink="http://www.w3.org/1999/xlink" x="0px" y="0px"
	 width="1020px" height="580px" viewBox="0 0 1020 580" enable-background="new 0 0 1020 580" xml:space="preserve">
<g>
	<path fill="#E9E9E9" d="M1005,550.816c0,7.832-7.42,14.184-16.572,14.184H31.573C22.42,565,15,558.648,15,550.816V29.184
		C15,21.35,22.42,15,31.573,15h956.854C997.58,15,1005,21.35,1005,29.184V550.816z"/>
	<path fill="#0D0D0E" d="M1000,547.591c0,7.403-7.344,13.409-16.404,13.409H36.407C27.346,561,20,554.994,20,547.591V54.409
		C20,47.002,27.346,41,36.407,41h947.189c9.061,0,16.404,6.002,16.404,13.409V547.591z"/>
	<g>
		<circle fill="#55B03E" cx="72.166" cy="28" r="6"/>
		<circle fill="#ED6960" cx="38.166" cy="28" r="6"/>
		<circle fill="#FCC130" cx="55.166" cy="28" r="6"/>
	</g>
</g>
</svg>
